<svg width="175" height="175" viewBox="0 0 175 175" fill="none" xmlns="http://www.w3.org/2000/svg">
<g clip-path="url(#clip0_6488_3282)">
<rect width="175" height="175" rx="87.5" fill="#9798C9"/>
<path d="M86.8073 85.1834C70.5874 85.1834 57.8433 71.1256 57.8433 54.6229C57.8433 37.5091 71.1667 24.0625 86.8073 24.0625C103.027 24.0625 115.771 38.1203 115.771 54.6229C115.771 71.1256 103.027 85.1834 86.8073 85.1834ZM86.8073 27.1185C72.3253 27.1185 60.7397 39.3429 60.7397 54.0119C60.7397 69.2921 72.3253 81.5163 86.8073 81.5163C101.289 81.5163 112.296 69.2921 112.296 54.0119C112.875 39.3429 101.289 27.1185 86.8073 27.1185Z" fill="#FBFDFF"/>
<path d="M123.302 148.75H52.0503C50.8917 148.75 50.3125 148.138 50.3125 146.916V120.634C50.3125 98.6306 67.1118 81.5166 87.3866 81.5166C108.241 81.5166 124.46 99.2418 124.46 120.634V146.916C125.04 148.138 124.46 148.75 123.302 148.75ZM53.788 145.082H121.564V120.634C121.564 101.075 106.503 84.5726 87.3866 84.5726C68.2703 84.5726 53.2089 100.464 53.2089 120.634V145.082H53.788Z" fill="#FBFDFF"/>
</g>
<defs>
<clipPath id="clip0_6488_3282">
<rect width="175" height="175" rx="87.5" fill="white"/>
</clipPath>
</defs>
</svg>
