<svg width="1441.000000" height="1094.000000" viewBox="0 0 1441 1094" fill="none" xmlns="http://www.w3.org/2000/svg" xmlns:xlink="http://www.w3.org/1999/xlink">
	<desc>
			Created with Pixso.
	</desc>
	<defs/>
	<g opacity="0.200000">
		<path id="Vector 4" d="M0.5 0.5L18.09 479.62L120.85 734.15L94.81 0.5L0.5 0.5Z" fill="#B8E4FA" fill-opacity="1.000000" fill-rule="nonzero"/>
		<path id="Vector 4" d="M94.81 0.5L120.85 734.15L223.6 90.33L208.12 0.5L94.81 0.5Z" fill="#0091C7" fill-opacity="1.000000" fill-rule="nonzero"/>
		<path id="Vector 4" d="M18.09 479.62L0.5 0.5L0.5 1093.5L140.55 1093.5L120.85 734.15L18.09 479.62Z" fill="#0071BC" fill-opacity="1.000000" fill-rule="nonzero"/>
		<path id="Vector 4" d="M120.85 734.15L140.55 1093.5L223.6 90.33L120.85 734.15Z" fill="#00A99D" fill-opacity="1.000000" fill-rule="nonzero"/>
		<path id="Vector 4" d="M223.6 90.33L140.55 1093.5L220.09 1093.5L223.6 90.33Z" fill="#ACCA3E" fill-opacity="1.000000" fill-rule="nonzero"/>
		<path id="Vector 4" d="M223.6 90.33L220.09 1093.5L400.96 1093.5L223.6 90.33Z" fill="#009245" fill-opacity="1.000000" fill-rule="nonzero"/>
		<path id="Vector 4" d="M208.12 0.5L223.6 90.33L400.96 1093.5L368.59 0.5L208.12 0.5Z" fill="#FBB03B" fill-opacity="1.000000" fill-rule="nonzero"/>
		<path id="Vector 4" d="M368.59 0.5L400.96 1093.5L435.45 479.62L410.11 0.5L368.59 0.5Z" fill="#F37920" fill-opacity="1.000000" fill-rule="nonzero"/>
		<path id="Vector 4" d="M435.45 479.62L400.96 1093.5L524.13 1093.5L496.68 314.92L435.45 479.62Z" fill="#D60080" fill-opacity="1.000000" fill-rule="nonzero"/>
		<path id="Vector 4" d="M410.11 0.5L435.45 479.62L496.68 314.92L491.05 0.5L410.11 0.5Z" fill="#2E3192" fill-opacity="1.000000" fill-rule="nonzero"/>
		<path id="Vector 4" d="M496.68 314.92L524.13 1093.5L610.7 1093.5L552.28 479.62L496.68 314.92Z" fill="#9798C9" fill-opacity="1.000000" fill-rule="nonzero"/>
		<path id="Vector 4" d="M669.82 0.5L634.63 1093.5L695.86 1093.5L762.02 0.5L669.82 0.5Z" fill="#0091C7" fill-opacity="1.000000" fill-rule="nonzero"/>
		<path id="Vector 4" d="M762.02 0.5L695.86 1093.5L795.8 1093.5L762.02 0.5Z" fill="#0071BC" fill-opacity="1.000000" fill-rule="nonzero"/>
		<path id="Vector 4" d="M762.02 0.5L795.8 1093.5L912.64 1093.5L947.12 0.5L762.02 0.5Z" fill="#00A99D" fill-opacity="1.000000" fill-rule="nonzero"/>
		<path id="Vector 4" d="M947.12 0.5L912.64 1093.5L1094.93 1093.5L1028.06 0.5L947.12 0.5Z" fill="#009245" fill-opacity="1.000000" fill-rule="nonzero"/>
		<path id="Vector 4" d="M1028.06 0.5L1094.93 1093.5L1180.09 0.5L1028.06 0.5Z" fill="#FBB03B" fill-opacity="1.000000" fill-rule="nonzero"/>
		<path id="Vector 4" d="M1180.09 0.5L1094.93 1093.5L1187.82 1093.5L1215.98 764.1L1180.09 0.5Z" fill="#F37920" fill-opacity="1.000000" fill-rule="nonzero"/>
		<path id="Vector 4" d="M1180.09 0.5L1215.98 764.1L1342.67 374.81L1300.43 0.5L1180.09 0.5Z" fill="#D60080" fill-opacity="1.000000" fill-rule="nonzero"/>
		<path id="Vector 4" d="M1215.98 764.1L1187.82 1093.5L1287.77 1093.5L1342.67 374.81L1215.98 764.1Z" fill="#2E3192" fill-opacity="1.000000" fill-rule="nonzero"/>
		<path id="Vector 4" d="M1342.67 374.81L1287.77 1093.5L1417.98 1093.5L1406.01 374.81L1342.67 374.81Z" fill="#E97FC0" fill-opacity="1.000000" fill-rule="nonzero"/>
		<path id="Vector 4" d="M1300.43 0.5L1342.67 374.81L1406.01 374.81L1440.5 0.5L1300.43 0.5Z" fill="#9798C9" fill-opacity="1.000000" fill-rule="nonzero"/>
		<path id="Vector 4" d="M1406.01 374.81L1417.98 1093.5L1440.5 1093.5L1440.5 0.5L1406.01 374.81Z" fill="#F9BC90" fill-opacity="1.000000" fill-rule="nonzero"/>
		<path id="Vector 4" d="M491.05 0.5L496.68 314.92L552.28 479.62L563.55 0.5L491.05 0.5Z" fill="#B8E4FA" fill-opacity="1.000000" fill-rule="nonzero"/>
		<path id="Vector 4" d="M616.33 0.5L634.63 1093.5L669.82 0.5L616.33 0.5Z" fill="#2E3192" fill-opacity="1.000000" fill-rule="nonzero"/>
		<path id="Vector 4" d="M563.55 0.5L552.28 479.62L610.7 1093.5L634.63 1093.5L616.33 0.5L563.55 0.5Z" fill="#F37920" fill-opacity="1.000000" fill-rule="nonzero"/>
		<path id="Vector 4" d="M0.5 0.5L18.09 479.62L120.85 734.15M140.55 1093.5L120.85 734.15L94.81 0.5M0.5 0.5L0.5 1093.5L140.55 1093.5L220.09 1093.5L400.96 1093.5L524.13 1093.5L610.7 1093.5L634.63 1093.5L695.86 1093.5L795.8 1093.5L912.64 1093.5L1094.93 1093.5L1187.82 1093.5L1287.77 1093.5L1417.98 1093.5L1440.5 1093.5L1440.5 0.5L1300.43 0.5L1180.09 0.5L1028.06 0.5L947.12 0.5L762.02 0.5L669.82 0.5L616.33 0.5L563.55 0.5L491.05 0.5L410.11 0.5L368.59 0.5L208.12 0.5L94.81 0.5L0.5 0.5ZM120.85 734.15L223.6 90.33M400.96 1093.5L223.6 90.33L208.12 0.5M140.55 1093.5L223.6 90.33M223.6 90.33L220.09 1093.5M400.96 1093.5L368.59 0.5M410.11 0.5L435.45 479.62L400.96 1093.5M524.13 1093.5L496.68 314.92L491.05 0.5M496.68 314.92L435.45 479.62M496.68 314.92L552.28 479.62M610.7 1093.5L552.28 479.62L563.55 0.5M634.63 1093.5L616.33 0.5M634.63 1093.5L669.82 0.5M762.02 0.5L695.86 1093.5M762.02 0.5L795.8 1093.5M912.64 1093.5L947.12 0.5M1028.06 0.5L1094.93 1093.5M1094.93 1093.5L1180.09 0.5M1180.09 0.5L1215.98 764.1L1187.82 1093.5M1287.77 1093.5L1342.67 374.81L1300.43 0.5M1342.67 374.81L1215.98 764.1M1342.67 374.81L1406.01 374.81M1440.5 0.5L1406.01 374.81L1417.98 1093.5" stroke="#818C99" stroke-opacity="1.000000" stroke-width="1.000000"/>
	</g>
</svg>
