<svg width="24" height="24" viewBox="0 0 24 24" fill="none" xmlns="http://www.w3.org/2000/svg">
<path d="M2 8.4C2 6.15979 2 5.03969 2.43597 4.18404C2.81947 3.43139 3.43139 2.81947 4.18404 2.43597C5.03969 2 6.15979 2 8.4 2H15.6C17.8402 2 18.9603 2 19.816 2.43597C20.5686 2.81947 21.1805 3.43139 21.564 4.18404C22 5.03969 22 6.15979 22 8.4V15.6C22 17.8402 22 18.9603 21.564 19.816C21.1805 20.5686 20.5686 21.1805 19.816 21.564C18.9603 22 17.8402 22 15.6 22H8.4C6.15979 22 5.03969 22 4.18404 21.564C3.43139 21.1805 2.81947 20.5686 2.43597 19.816C2 18.9603 2 17.8402 2 15.6V8.4Z" fill="#2E3192"/>
<path fill-rule="evenodd" clip-rule="evenodd" d="M2.43597 4.18404C2 5.03969 2 6.15979 2 8.4V15.6C2 17.8402 2 18.9603 2.43597 19.816C2.81947 20.5686 3.43139 21.1805 4.18404 21.564C5.03969 22 6.15979 22 8.4 22H15.6C17.8402 22 18.9603 22 19.816 21.564C20.5686 21.1805 21.1805 20.5686 21.564 19.816C22 18.9603 22 17.8402 22 15.6V8.4C22 6.15979 22 5.03969 21.564 4.18404C21.1805 3.43139 20.5686 2.81947 19.816 2.43597C18.9603 2 17.8402 2 15.6 2H8.4C6.15979 2 5.03969 2 4.18404 2.43597C3.43139 2.81947 2.81947 3.43139 2.43597 4.18404ZM18.2071 9.20711C18.5976 8.81658 18.5976 8.18342 18.2071 7.79289C17.8166 7.40237 17.1834 7.40237 16.7929 7.79289L10 14.5858L7.20711 11.7929C6.81658 11.4024 6.18342 11.4024 5.79289 11.7929C5.40237 12.1834 5.40237 12.8166 5.79289 13.2071L9.29289 16.7071C9.68342 17.0976 10.3166 17.0976 10.7071 16.7071L18.2071 9.20711Z" fill="#FBFDFF"/>
</svg>
