<svg width="24" height="24" viewBox="0 0 24 24" fill="none" xmlns="http://www.w3.org/2000/svg">
<path fill-rule="evenodd" clip-rule="evenodd" d="M21.5858 3.25294H13.9882V1.49023L1.5 3.38808V20.0234L13.9882 22.1413V19.5286H21.5858C21.8158 19.5401 22.0412 19.4614 22.2125 19.3097C22.3839 19.1581 22.4872 18.9458 22.5 18.7193V4.06156C22.487 3.83519 22.3836 3.62308 22.2123 3.47157C22.041 3.32006 21.8157 3.24146 21.5858 3.25294ZM21.7057 18.8537H13.9628L13.95 17.4587H15.8153V15.8341H13.9357L13.9268 14.8741H15.8153V13.2495H13.9125L13.9035 12.2895H15.8153V10.6649H13.8975V9.70488H15.8153V8.08027H13.8975V7.12027H15.8153V5.49565H13.8975V4.01873H21.7057V18.8537Z" fill="#2E3192"/>
<path d="M16.8652 5.49316H20.1075V7.11778H16.8652V5.49316ZM16.8652 8.07852H20.1075V9.70313H16.8652V8.07852ZM16.8652 10.6639H20.1075V12.2885H16.8652V10.6639ZM16.8652 13.2492H20.1075V14.8738H16.8652V13.2492ZM16.8652 15.8346H20.1075V17.4592H16.8652V15.8346Z" fill="#2E3192"/>
<path fill-rule="evenodd" clip-rule="evenodd" d="M4.76007 7.88156L6.36957 7.79073L7.38132 10.5297L8.57682 7.67774L10.1863 7.58691L8.23182 11.4757L10.1863 15.374L8.48457 15.261L7.33557 12.2894L6.18582 15.148L4.62207 15.0121L6.43857 11.5687L4.76007 7.88156Z" fill="#FBFDFF"/>
</svg>
