<svg width="32" height="32" viewBox="0 0 32 32" fill="none" xmlns="http://www.w3.org/2000/svg">
<path fill-rule="evenodd" clip-rule="evenodd" d="M8.69907 4.70588L8.22857 4.23076V5.86205C8.94198 6.31111 9.80411 6.34401 10.5632 5.96076C11.0292 5.64703 11.4951 5.49013 11.9612 5.33327C13.0485 5.01954 13.67 4.07837 13.67 2.98033V1.41171C13.67 1.25484 13.8252 1.09796 13.9806 1.09796H17.398C17.5534 1.09796 17.7087 1.25484 17.7087 1.41171V2.98033C17.7087 4.07837 18.4854 5.01954 19.4174 5.33327C19.6505 5.4117 19.8835 5.52936 20.1165 5.64701C20.3495 5.76467 20.5825 5.88233 20.8155 5.96076C21.7476 6.43135 22.8349 6.2745 23.6116 5.49019L24.699 4.39213C24.8544 4.23527 25.0097 4.23527 25.165 4.39213L27.4951 6.74507C27.6505 6.74507 27.6505 6.74503 27.6505 6.90189L26.4077 8.15678C25.631 8.94109 25.4757 10.0392 25.9417 10.9804C26.2524 11.451 26.4078 11.9216 26.5631 12.3922C26.8738 13.4902 27.8058 14.1176 28.8932 14.1176H30.4466C30.6019 14.1176 30.7573 14.2744 30.7573 14.4313V17.8824C30.7573 18.0392 30.6019 18.196 30.4466 18.196H29.0485C27.9611 18.196 27.0291 18.9803 26.7184 19.9215C26.6407 20.1568 26.5243 20.3921 26.4078 20.6274C26.2913 20.8627 26.1748 21.098 26.0971 21.3333C25.8557 21.8209 25.781 22.3507 25.8732 22.8571H27.1391C26.9773 22.4849 26.977 22.0659 27.1844 21.6469C27.4353 21.2669 27.5849 20.7846 27.715 20.3653C27.746 20.2653 27.7759 20.1689 27.8058 20.0783C28.1165 19.4508 28.7378 18.9803 29.3592 18.9803H30.7573C31.534 18.9803 32 18.3528 32 17.7254V14.2745C32 13.4901 31.3787 13.0195 30.7573 13.0195H29.2039C28.4272 13.0195 27.8059 12.549 27.6505 11.9215C27.4952 11.2941 27.3398 10.8235 27.0291 10.3529C26.7184 9.8823 26.8738 9.09803 27.3398 8.62744L28.4272 7.52938C28.5825 7.37252 28.7378 7.0588 28.7378 6.74507C28.7378 6.43135 28.5825 6.11762 28.4272 5.96076L26.0971 3.60782C25.6311 3.13723 24.8543 3.13723 24.3883 3.60782L23.3009 4.70588C22.8349 5.17646 22.2136 5.33325 21.5922 5.01953C20.9709 4.7058 20.5049 4.54899 20.0388 4.39213C19.4175 4.07841 18.9514 3.45096 18.9514 2.82351V1.25488C18.9514 0.470569 18.3301 0 17.7087 0H14.2913C13.5146 0 13.0486 0.627431 13.0486 1.25488V2.82351C13.0486 3.60782 12.5825 4.23527 11.9612 4.39213C11.3398 4.54899 10.8738 4.7058 10.4078 5.01953C9.94175 5.33325 9.16509 5.17646 8.69907 4.70588Z" fill="#2E3192"/>
<path d="M14.136 32H17.5534C18.1748 32 18.6408 31.3725 19.1068 30.745V29.3332C19.1068 28.5489 19.5728 27.9215 20.1941 27.7646C20.8155 27.6077 21.2815 27.4508 21.7475 27.1371C22.2136 26.8234 22.9903 26.9804 23.4563 27.4509L24.5437 28.5489C25.0097 29.0195 25.7864 29.0195 26.2524 28.5489L28.5825 26.196C29.0485 25.7254 29.0485 24.9411 28.5825 24.4705L27.4951 23.3726C27.3402 23.2162 27.2197 23.0424 27.1391 22.8571H25.8732C25.9589 23.3281 26.1889 23.7789 26.5631 24.1569L27.6505 25.2548C27.8059 25.2548 27.8058 25.4117 27.8058 25.4117L25.3204 27.9214C25.1651 28.0783 25.0097 28.0783 24.8543 27.9214L23.767 26.8235C22.9903 26.0391 21.9029 25.8822 20.9708 26.3528C20.5048 26.6665 20.0389 26.8234 19.5728 26.9803C18.4855 27.294 17.864 28.2352 17.864 29.3332V30.745C17.864 30.9019 17.7088 31.0587 17.5534 31.0587H14.136C13.9806 31.0587 13.8253 30.9019 13.8253 30.745V29.3332C13.8253 28.2352 13.0486 27.294 12.1166 26.9803C11.6505 26.8234 11.1845 26.5097 10.7185 26.3528C10.4078 26.1959 9.94175 26.0391 9.63107 26.0391C9.00971 26.0391 8.38837 26.3529 7.61168 26.8235L6.52428 27.9214C6.36894 28.0783 6.21362 28.0783 6.05828 27.9214L3.72819 25.5685C3.57285 25.5685 3.57289 25.4117 3.57289 25.4117L4.81558 24.1569C5.59228 23.3726 5.7476 22.2744 5.28158 21.3333C4.9709 20.8627 4.81553 20.3921 4.66019 19.9215C4.34951 18.8234 3.41747 18.196 2.33009 18.196H0.932094C0.776755 18.196 0.621396 18.0392 0.621396 17.8824V14.4313C0.621396 14.2744 0.776755 14.1176 0.932094 14.1176H2.48549C3.57287 14.1176 4.5049 13.3334 4.81558 12.3922C4.97092 11.9216 5.28154 11.451 5.43688 10.9804C5.9029 10.0392 5.74758 8.94109 4.97088 8.15678L3.88349 7.05881C3.72815 7.05881 3.72819 7.05876 3.72819 6.90189L6.21358 4.39213C6.36892 4.23527 6.52434 4.23527 6.67968 4.39213L7.76698 5.49019C7.91113 5.63576 8.06599 5.75971 8.22857 5.86205V4.23076L7.61168 3.60782C7.14566 3.13723 6.369 3.13723 5.90298 3.60782L3.57289 5.96076C3.41755 6.11762 3.26219 6.43135 3.26219 6.74507C3.26219 7.0588 3.41755 7.37252 3.57289 7.52938L4.66019 8.62744C5.1262 9.09803 5.28156 9.72544 4.97088 10.3529C4.66021 10.9803 4.50492 11.4509 4.34958 11.9215C4.0389 12.549 3.41755 13.0195 2.79619 13.0195H1.24279C0.466094 13.0195 0 13.647 0 14.2745V17.7254C0 18.5097 0.621434 18.9803 1.24279 18.9803H2.64079C3.41749 18.9803 4.03885 19.4508 4.19419 20.0783C4.34953 20.7057 4.5049 21.1763 4.81558 21.6469C5.12626 22.1175 4.9709 22.902 4.50488 23.3726L3.41749 24.4705C2.95147 24.9411 2.95147 25.7254 3.41749 26.196L5.74758 28.5489C6.2136 29.0195 6.99035 29.0195 7.45637 28.5489L8.54367 27.4509C9.00969 26.9804 9.63111 26.8234 10.2525 27.1371C10.7185 27.4508 11.3398 27.6077 11.8059 27.7646C12.4272 28.0783 12.8933 28.7058 12.8933 29.3332V30.745C12.8933 31.5293 13.5146 32 14.136 32Z" fill="#2E3192"/>
<path fill-rule="evenodd" clip-rule="evenodd" d="M20.2298 23.1127H21.7911C23.7543 21.46 25.023 18.9808 25.023 16.2554C25.023 11.2358 20.9842 7.31429 16.1687 7.31429C12.889 7.31429 10.0826 9.08966 8.55268 11.6943V14.0609C9.50578 10.7229 12.5716 8.25542 16.1687 8.25542C20.5182 8.25542 24.091 11.8632 24.091 16.2554C24.091 19.1526 22.5365 21.7084 20.2298 23.1127Z" fill="#2E3192"/>
<path d="M8.55268 20.8264C9.06648 21.6969 9.72217 22.469 10.4853 23.1127H12.1075C10.4058 22.0767 9.11351 20.414 8.55268 18.4498V20.8264Z" fill="#2E3192"/>
<path d="M8.55268 11.6943C7.76379 13.0374 7.31429 14.601 7.31429 16.2554C7.31429 17.9378 7.76803 19.497 8.55268 20.8264V18.4498C8.3533 17.7516 8.24638 17.0152 8.24638 16.2554C8.24638 15.4955 8.3533 14.7592 8.55268 14.0609V11.6943Z" fill="#2E3192"/>
<path d="M20.2298 23.1127C19.0396 23.8373 17.6491 24.2553 16.1687 24.2553C14.6882 24.2553 13.2977 23.8373 12.1075 23.1127H10.4853C12.0336 24.4189 14.0241 25.1967 16.1687 25.1967C18.2852 25.1967 20.2517 24.4088 21.7911 23.1127H20.2298Z" fill="#2E3192"/>
</svg>
