<svg width="295" height="274" viewBox="0 0 295 274" fill="none" xmlns="http://www.w3.org/2000/svg">
<mask id="mask0_2821_1700" style="mask-type:alpha" maskUnits="userSpaceOnUse" x="0" y="0" width="295" height="274">
<rect x="2" y="2" width="291" height="270" stroke="#2E3192" stroke-width="4"/>
</mask>
<g mask="url(#mask0_2821_1700)">
<path d="M-82 -28L-76.5748 121.041L-44.8915 200.219L-52.9208 -28H-82Z" fill="#B8E4FA"/>
<path d="M-52.9208 -28L-44.8915 200.219L-13.2082 -0.0547943L-17.9824 -28H-52.9208Z" fill="#0091C7"/>
<path d="M-76.5748 121.041L-82 -28V312H-38.8152L-44.8915 200.219L-76.5748 121.041Z" fill="#0071BC"/>
<path d="M-44.8915 200.219L-38.8152 312L-13.2082 -0.0547943L-44.8915 200.219Z" fill="#00A99D"/>
<path d="M-13.2082 -0.0547943L-38.8152 312H-14.2933L-13.2082 -0.0547943Z" fill="#ACCA3E"/>
<path d="M-13.2082 -0.0547943L-14.2933 312H41.478L-13.2082 -0.0547943Z" fill="#2E3192"/>
<path d="M-17.9824 -28L-13.2082 -0.0547943L41.478 312L31.4956 -28H-17.9824Z" fill="#ACCA3E"/>
<path d="M31.4956 -28L41.478 312L52.1115 121.041L44.2991 -28H31.4956Z" fill="#F37920"/>
<path d="M52.1115 121.041L41.478 312H79.4545L70.9912 69.8082L52.1115 121.041Z" fill="#D60080"/>
<path d="M44.2991 -28L52.1115 121.041L70.9912 69.8082L69.2551 -28H44.2991Z" fill="#2E3192"/>
<path d="M70.9912 69.8082L79.4545 312H106.147L88.1349 121.041L70.9912 69.8082Z" fill="#9798C9"/>
<path d="M124.375 -28L113.525 312H132.405L152.804 -28H124.375Z" fill="#0091C7"/>
<path d="M152.804 -28L132.405 312H163.22L152.804 -28Z" fill="#0071BC"/>
<path d="M152.804 -28L163.22 312H199.243L209.877 -28H152.804Z" fill="#00A99D"/>
<path d="M209.877 -28L199.243 312H255.449L234.833 -28H209.877Z" fill="#009245"/>
<path d="M234.833 -28L255.449 312L281.707 -28H234.833Z" fill="#FBB03B"/>
<path d="M281.707 -28L255.449 312H284.094L292.774 209.534L281.707 -28Z" fill="#F37920"/>
<path d="M281.707 -28L292.774 209.534L331.836 88.4384L318.815 -28H281.707Z" fill="#D60080"/>
<path d="M292.774 209.534L284.094 312H314.909L331.836 88.4384L292.774 209.534Z" fill="#2E3192"/>
<path d="M331.836 88.4384L314.909 312H355.056L351.367 88.4384H331.836Z" fill="#E97FC0"/>
<path d="M318.815 -28L331.836 88.4384H351.367L362 -28H318.815Z" fill="#9798C9"/>
<path d="M351.367 88.4384L355.056 312H362V-28L351.367 88.4384Z" fill="#F9BC90"/>
<path d="M69.2551 -28L70.9912 69.8082L88.1349 121.041L91.607 -28H69.2551Z" fill="#B8E4FA"/>
<path d="M107.883 -28L113.525 312L124.375 -28H107.883Z" fill="#2E3192"/>
<path d="M91.607 -28L88.1349 121.041L106.147 312H113.525L107.883 -28H91.607Z" fill="#F37920"/>
<path d="M-82 -28L-76.5748 121.041L-44.8915 200.219M-82 -28H-52.9208M-82 -28V312H-38.8152M-44.8915 200.219L-52.9208 -28M-44.8915 200.219L-38.8152 312M-44.8915 200.219L-13.2082 -0.0547943M-52.9208 -28H-17.9824M-38.8152 312L-13.2082 -0.0547943M-38.8152 312H-14.2933M-13.2082 -0.0547943L-17.9824 -28M-13.2082 -0.0547943L-14.2933 312M-13.2082 -0.0547943L41.478 312M-17.9824 -28H31.4956M-14.2933 312H41.478M41.478 312L31.4956 -28M41.478 312L52.1115 121.041M41.478 312H79.4545M31.4956 -28H44.2991M44.2991 -28L52.1115 121.041M44.2991 -28H69.2551M52.1115 121.041L70.9912 69.8082M79.4545 312L70.9912 69.8082M79.4545 312H106.147M70.9912 69.8082L69.2551 -28M70.9912 69.8082L88.1349 121.041M69.2551 -28H91.607M88.1349 121.041L91.607 -28M88.1349 121.041L106.147 312M91.607 -28H107.883M106.147 312H113.525M113.525 312L107.883 -28M113.525 312L124.375 -28M113.525 312H132.405M107.883 -28H124.375M124.375 -28H152.804M152.804 -28L132.405 312M152.804 -28L163.22 312M152.804 -28H209.877M132.405 312H163.22M163.22 312H199.243M199.243 312L209.877 -28M199.243 312H255.449M209.877 -28H234.833M234.833 -28L255.449 312M234.833 -28H281.707M255.449 312L281.707 -28M255.449 312H284.094M281.707 -28L292.774 209.534M281.707 -28H318.815M292.774 209.534L284.094 312M292.774 209.534L331.836 88.4384M284.094 312H314.909M314.909 312L331.836 88.4384M314.909 312H355.056M331.836 88.4384L318.815 -28M331.836 88.4384H351.367M318.815 -28H362M351.367 88.4384L355.056 312M351.367 88.4384L362 -28M355.056 312H362V-28" stroke="#818C99"/>
</g>
</svg>
