<?xml version="1.0" standalone="no"?>
<!DOCTYPE svg PUBLIC "-//W3C//DTD SVG 20010904//EN"
 "http://www.w3.org/TR/2001/REC-SVG-20010904/DTD/svg10.dtd">
<svg version="1.0" xmlns="http://www.w3.org/2000/svg"
 width="260.000000pt" height="260.000000pt" viewBox="0 0 260.000000 260.000000"
 preserveAspectRatio="xMidYMid meet">
<metadata>
Created by potrace 1.14, written by Peter Selinger 2001-2017
</metadata>
<g transform="translate(0.000000,260.000000) scale(0.100000,-0.100000)"
fill="#000000" stroke="none">
<path d="M0 1300 l0 -1300 1300 0 1300 0 0 1300 0 1300 -1300 0 -1300 0 0
-1300z m1780 481 c25 -13 57 -34 71 -48 l27 -25 45 35 c71 54 123 70 214 65
92 -4 152 -29 211 -89 63 -62 86 -120 86 -214 0 -129 -9 -142 -301 -435 l-254
-255 -245 250 c-134 138 -256 270 -271 294 -35 58 -44 179 -19 245 35 91 102
158 193 192 58 22 186 13 243 -15z m-730 -456 l0 -465 -140 0 -140 0 0 155 0
156 -71 -3 -71 -3 -97 -150 -97 -150 -148 -3 c-118 -2 -147 0 -143 10 2 7 55
85 116 172 l111 160 -46 22 c-95 46 -144 118 -152 225 -11 163 79 283 243 323
45 11 134 15 348 15 l287 1 0 -465z"/>
<path d="M1522 1734 c-91 -45 -141 -127 -142 -229 0 -81 32 -144 110 -220 l61
-60 110 112 c60 62 109 117 109 122 0 5 -13 11 -29 14 -17 4 -57 32 -93 65
-55 52 -61 62 -49 76 7 9 16 16 20 16 3 0 35 -25 69 -55 66 -58 107 -69 153
-44 18 9 31 1 100 -65 72 -69 82 -76 120 -76 22 0 39 4 37 10 -1 5 -68 78
-148 161 -167 176 -203 199 -311 199 -50 0 -77 -6 -117 -26z"/>
<path d="M2020 1739 c-25 -11 -57 -32 -72 -46 l-27 -26 129 -135 130 -136 -22
-23 c-12 -13 -41 -29 -65 -34 -36 -10 -63 -33 -189 -166 -146 -153 -147 -154
-128 -174 20 -19 21 -18 174 136 84 85 155 155 158 155 2 0 24 -17 48 -37 l45
-36 70 69 c94 92 113 130 113 219 0 80 -20 129 -76 182 -75 72 -196 94 -288
52z"/>
<path d="M1721 1323 l-132 -136 23 -24 22 -23 54 52 c29 29 90 92 134 141 79
85 80 88 63 107 -10 11 -21 20 -26 20 -4 0 -66 -61 -138 -137z"/>
<path d="M1811 1245 c-72 -75 -131 -139 -131 -144 0 -4 8 -15 18 -24 17 -16
26 -9 157 123 136 137 138 140 120 160 -10 11 -21 20 -25 20 -4 0 -67 -61
-139 -135z"/>
<path d="M2087 1202 c-16 -17 -15 -20 8 -42 24 -23 25 -23 45 -5 l20 18 -22
24 c-26 28 -30 28 -51 5z"/>
<path d="M2009 1119 c-9 -18 -7 -25 10 -42 l21 -21 23 22 22 23 -25 19 c-32
25 -37 25 -51 -1z"/>
<path d="M1934 1039 c-18 -20 -18 -21 6 -39 24 -19 25 -19 44 0 19 19 19 20 1
40 -23 25 -27 25 -51 -1z"/>
<path d="M1855 960 c-18 -20 -18 -21 5 -45 l24 -25 23 22 23 22 -22 23 c-26
28 -30 28 -53 3z"/>
<path d="M489 1547 c-25 -17 -35 -31 -37 -56 -9 -93 22 -111 192 -111 l126 0
0 95 0 95 -124 0 c-112 0 -126 -2 -157 -23z"/>
</g>
</svg>
