<svg width="1440" height="22" viewBox="0 0 1440 22" fill="none" xmlns="http://www.w3.org/2000/svg">
<path d="M0 1L17.5953 33L120.352 50L94.3109 1H0Z" fill="#B8E4FA"/>
<path d="M94.3109 1L120.352 50L223.109 7L207.625 1H94.3109Z" fill="#0091C7"/>
<path d="M17.5953 33L0 1V74H140.059L120.352 50L17.5953 33Z" fill="#0071BC"/>
<path d="M120.352 50L140.059 74L223.109 7L120.352 50Z" fill="#00A99D"/>
<path d="M223.109 7L140.059 74H219.589L223.109 7Z" fill="#ACCA3E"/>
<path d="M223.109 7L219.589 74H400.469L223.109 7Z" fill="#009245"/>
<path d="M207.625 1L223.109 7L400.469 74L368.094 1H207.625Z" fill="#FBB03B"/>
<path d="M368.094 1L400.469 74L434.956 33L409.619 1H368.094Z" fill="#F37920"/>
<path d="M434.956 33L400.469 74H523.636L496.188 22L434.956 33Z" fill="#D60080"/>
<path d="M409.619 1L434.956 33L496.188 22L490.557 1H409.619Z" fill="#2E3192"/>
<path d="M496.188 22L523.636 74H610.205L551.789 33L496.188 22Z" fill="#9798C9"/>
<path d="M669.326 1L634.135 74H695.367L761.525 1H669.326Z" fill="#0091C7"/>
<path d="M761.525 1L695.367 74H795.308L761.525 1Z" fill="#0071BC"/>
<path d="M761.525 1L795.308 74H912.141L946.628 1H761.525Z" fill="#00A99D"/>
<path d="M946.628 1L912.141 74H1094.43L1027.57 1H946.628Z" fill="#009245"/>
<path d="M1027.57 1L1094.43 74L1179.59 1H1027.57Z" fill="#FBB03B"/>
<path d="M1179.59 1L1094.43 74H1187.33L1215.48 52L1179.59 1Z" fill="#F37920"/>
<path d="M1179.59 1L1215.48 52L1342.17 26L1299.94 1H1179.59Z" fill="#D60080"/>
<path d="M1215.48 52L1187.33 74H1287.27L1342.17 26L1215.48 52Z" fill="#2E3192"/>
<path d="M1342.17 26L1287.27 74H1417.48L1405.51 26H1342.17Z" fill="#E97FC0"/>
<path d="M1299.94 1L1342.17 26H1405.51L1440 1H1299.94Z" fill="#9798C9"/>
<path d="M1405.51 26L1417.48 74H1440V1L1405.51 26Z" fill="#F9BC90"/>
<path d="M490.557 1L496.188 22L551.789 33L563.05 1H490.557Z" fill="#B8E4FA"/>
<path d="M615.836 1L634.135 74L669.326 1H615.836Z" fill="#2E3192"/>
<path d="M563.05 1L551.789 33L610.205 74H634.135L615.836 1H563.05Z" fill="#F37920"/>
<path d="M0 1L17.5953 33L120.352 50M0 1H94.3108M0 1V74H140.059M120.352 50L94.3108 1M120.352 50L140.059 74M120.352 50L223.109 7M94.3108 1H207.625M140.059 74L223.109 7M140.059 74H219.589M223.109 7L207.625 1M223.109 7L219.589 74M223.109 7L400.469 74M207.625 1H368.094M219.589 74H400.469M400.469 74L368.094 1M400.469 74L434.956 33M400.469 74H523.636M368.094 1H409.619M409.619 1L434.956 33M409.619 1H490.557M434.956 33L496.188 22M523.636 74L496.188 22M523.636 74H610.205M496.188 22L490.557 1M496.188 22L551.789 33M490.557 1H563.05M551.789 33L563.05 1M551.789 33L610.205 74M563.05 1H615.836M610.205 74H634.135M634.135 74L615.836 1M634.135 74L669.325 1M634.135 74H695.367M615.836 1H669.325M669.325 1H761.525M761.525 1L695.367 74M761.525 1L795.308 74M761.525 1H946.628M695.367 74H795.308M795.308 74H912.141M912.141 74L946.628 1M912.141 74H1094.43M946.628 1H1027.57M1027.57 1L1094.43 74M1027.57 1H1179.59M1094.43 74L1179.59 1M1094.43 74H1187.33M1179.59 1L1215.48 52M1179.59 1H1299.94M1215.48 52L1187.33 74M1215.48 52L1342.17 26M1187.33 74H1287.27M1287.27 74L1342.17 26M1287.27 74H1417.48M1342.17 26L1299.94 1M1342.17 26H1405.51M1299.94 1H1440M1405.51 26L1417.48 74M1405.51 26L1440 1M1417.48 74H1440V1" stroke="#818C99"/>
</svg>