<svg width="41" height="43" viewBox="0 0 41 43" fill="none" xmlns="http://www.w3.org/2000/svg">
<path d="M9 4.875L39.5 0L41 32.5H9V4.875Z" fill="#2E3192"/>
<path fill-rule="evenodd" clip-rule="evenodd" d="M9.51461 12.6471L9 12.1274V13.9116C9.78029 14.4028 10.7232 14.4388 11.5535 14.0196C12.0632 13.6764 12.5728 13.5048 13.0825 13.3333C14.2718 12.9901 14.9515 11.9607 14.9515 10.7597V9.04405C14.9515 8.87248 15.1213 8.7009 15.2912 8.7009H19.0291C19.199 8.7009 19.3689 8.87248 19.3689 9.04405V10.7597C19.3689 11.9607 20.2184 12.9901 21.2378 13.3333C21.4927 13.419 21.7475 13.5477 22.0024 13.6764C22.2573 13.8051 22.5121 13.9338 22.767 14.0196C23.7864 14.5343 24.9757 14.3627 25.8252 13.5049L27.0146 12.3039C27.1845 12.1323 27.3543 12.1323 27.5242 12.3039L30.0728 14.8774C30.2427 14.8774 30.2427 14.8774 30.2427 15.0489L30.0728 15.2206L28.8834 16.4215C28.0339 17.2793 27.864 18.4804 28.3738 19.5098C28.7136 20.0245 28.8835 20.5392 29.0534 21.0539C29.3932 22.2549 30.4126 22.9412 31.6019 22.9412H33.301C33.4709 22.9412 33.6408 23.1126 33.6408 23.2842V27.0588C33.6408 27.2304 33.4709 27.4019 33.301 27.4019H31.7718C30.5825 27.4019 29.5631 28.2597 29.2233 29.2891C29.1383 29.5465 29.0109 29.8038 28.8835 30.0612C28.7561 30.3185 28.6287 30.5759 28.5437 30.8333C28.2796 31.3666 28.198 31.9461 28.2988 32.5H29.6834C29.5064 32.0928 29.5061 31.6345 29.733 31.1763C30.0074 30.7607 30.171 30.2332 30.3133 29.7745C30.3472 29.6651 30.3799 29.5597 30.4126 29.4606C30.7524 28.7744 31.432 28.2597 32.1116 28.2597H33.6408C34.4903 28.2597 35 27.5734 35 26.8871V23.1127C35 22.2548 34.3204 21.7401 33.6408 21.7401H31.9418C31.0923 21.7401 30.4127 21.2254 30.2427 20.5392C30.0728 19.8529 29.9029 19.3382 29.5631 18.8235C29.2233 18.3088 29.3932 17.451 29.9029 16.9363L31.0923 15.7353C31.2622 15.5637 31.432 15.2206 31.432 14.8774C31.432 14.5343 31.2622 14.1911 31.0923 14.0196L28.5437 11.4461C28.034 10.9313 27.1844 10.9313 26.6747 11.4461L25.4854 12.6471C24.9757 13.1618 24.2961 13.3332 23.6165 12.9901C22.9369 12.647 22.4272 12.4755 21.9175 12.3039C21.2379 11.9608 20.7281 11.2745 20.7281 10.5882V8.87253C20.7281 8.01468 20.0485 7.5 19.3689 7.5H15.6311C14.7815 7.5 14.2719 8.18625 14.2719 8.87253V10.5882C14.2719 11.4461 13.7621 12.1323 13.0825 12.3039C12.4029 12.4755 11.8932 12.647 11.3835 12.9901C10.8738 13.3332 10.0243 13.1618 9.51461 12.6471Z" fill="#FBFDFF"/>
<path fill-rule="evenodd" clip-rule="evenodd" d="M21.772 32.5H23.4797C25.6269 30.6923 27.0146 27.9808 27.0146 24.9998C27.0146 19.5096 22.5971 15.2205 17.3301 15.2205C13.7429 15.2205 10.6735 17.1623 9.00012 20.0111V22.5996C10.0426 18.9487 13.3958 16.2498 17.3301 16.2498C22.0874 16.2498 25.9952 20.1959 25.9952 24.9998C25.9952 28.1686 24.2949 30.9641 21.772 32.5Z" fill="#FBFDFF"/>
<path d="M9.00012 27.5V29.9993C9.56209 30.9515 10.2792 31.7959 11.1139 32.5H12.8882C11.027 31.3669 9.61353 29.5483 9.00012 27.3999V27.5Z" fill="#FBFDFF"/>
</svg>
