<svg width="32" height="32" viewBox="0 0 32 32" fill="none" xmlns="http://www.w3.org/2000/svg">
<g clip-path="url(#clip0_1_27)">
<path d="M0 5.875L30.5 1L32 33.5H0V5.875Z" fill="#2E3192"/>
<path fill-rule="evenodd" clip-rule="evenodd" d="M0.514608 13.6471L0 13.1274V14.9116C0.78029 15.4028 1.72325 15.4388 2.55346 15.0196C3.06317 14.6764 3.57281 14.5048 4.08252 14.3333C5.27184 13.9901 5.95151 12.9607 5.95151 11.7597V10.0441C5.95151 9.87248 6.12133 9.7009 6.29123 9.7009H10.0291C10.199 9.7009 10.3689 9.87248 10.3689 10.0441V11.7597C10.3689 12.9607 11.2184 13.9901 12.2378 14.3333C12.4927 14.419 12.7475 14.5477 13.0024 14.6764C13.2573 14.8051 13.5121 14.9338 13.767 15.0196C14.7864 15.5343 15.9757 15.3627 16.8252 14.5049L18.0146 13.3039C18.1845 13.1323 18.3543 13.1323 18.5242 13.3039L21.0728 15.8774C21.2427 15.8774 21.2427 15.8774 21.2427 16.0489L21.0728 16.2206L19.8834 17.4215C19.0339 18.2793 18.864 19.4804 19.3738 20.5098C19.7136 21.0245 19.8835 21.5392 20.0534 22.0539C20.3932 23.2549 21.4126 23.9412 22.6019 23.9412H24.301C24.4709 23.9412 24.6408 24.1126 24.6408 24.2842V28.0588C24.6408 28.2304 24.4709 28.4019 24.301 28.4019H22.7718C21.5825 28.4019 20.5631 29.2597 20.2233 30.2891C20.1383 30.5465 20.0109 30.8038 19.8835 31.0612C19.7561 31.3185 19.6287 31.5759 19.5437 31.8333C19.2796 32.3666 19.198 32.9461 19.2988 33.5H20.6834C20.5064 33.0928 20.5061 32.6345 20.733 32.1763C21.0074 31.7607 21.171 31.2332 21.3133 30.7745C21.3472 30.6651 21.3799 30.5597 21.4126 30.4606C21.7524 29.7744 22.432 29.2597 23.1116 29.2597H24.6408C25.4903 29.2597 26 28.5734 26 27.8871V24.1127C26 23.2548 25.3204 22.7401 24.6408 22.7401H22.9418C22.0923 22.7401 21.4127 22.2254 21.2427 21.5392C21.0728 20.8529 20.9029 20.3382 20.5631 19.8235C20.2233 19.3088 20.3932 18.451 20.9029 17.9363L22.0923 16.7353C22.2622 16.5637 22.432 16.2206 22.432 15.8774C22.432 15.5343 22.2622 15.1911 22.0923 15.0196L19.5437 12.4461C19.034 11.9313 18.1844 11.9313 17.6747 12.4461L16.4854 13.6471C15.9757 14.1618 15.2961 14.3332 14.6165 13.9901C13.9369 13.647 13.4272 13.4755 12.9175 13.3039C12.2379 12.9608 11.7281 12.2745 11.7281 11.5882V9.87253C11.7281 9.01468 11.0485 8.5 10.3689 8.5H6.63106C5.78155 8.5 5.27186 9.18625 5.27186 9.87253V11.5882C5.27186 12.4461 4.76213 13.1323 4.08252 13.3039C3.40291 13.4755 2.8932 13.647 2.3835 13.9901C1.87379 14.3332 1.02432 14.1618 0.514608 13.6471Z" fill="#FBFDFF"/>
<path fill-rule="evenodd" clip-rule="evenodd" d="M12.772 33.5001H14.4797C16.6268 31.6924 18.0146 28.9809 18.0146 25.9999C18.0146 20.5097 13.5971 16.2206 8.33008 16.2206C4.74291 16.2206 1.67345 18.1624 0.000106812 21.0113V23.5997C1.04256 19.9488 4.3958 17.2499 8.33008 17.2499C13.0874 17.2499 16.9952 21.196 16.9952 25.9999C16.9952 29.1687 15.2949 31.9642 12.772 33.5001Z" fill="#FBFDFF"/>
<path d="M0.000106812 28.5001V30.9995C0.562076 31.9516 1.27923 32.796 2.11386 33.5001H3.88819C2.02701 32.367 0.613511 30.5484 0.000106812 28.4001V28.5001Z" fill="#FBFDFF"/>
</g>
<defs>
<clipPath id="clip0_1_27">
<rect width="32" height="32" fill="white"/>
</clipPath>
</defs>
</svg>
