<svg width="45" height="45" viewBox="0 0 45 45" fill="none" xmlns="http://www.w3.org/2000/svg">
<path d="M9 7.375L39.5 2.5L41 35H9V7.375Z" fill="#FBFDFF"/>
<path fill-rule="evenodd" clip-rule="evenodd" d="M19.5146 5.14705L19 4.6274V6.41162C19.7803 6.90278 20.7232 6.93876 21.5535 6.51958C22.0632 6.17644 22.5728 6.00483 23.0825 5.83326C24.2718 5.49013 24.9515 4.46072 24.9515 3.25974V1.54405C24.9515 1.37248 25.1213 1.2009 25.2912 1.2009H29.0291C29.199 1.2009 29.3689 1.37248 29.3689 1.54405V3.25974C29.3689 4.46072 30.2184 5.49013 31.2378 5.83326C31.4927 5.91905 31.7475 6.04773 32.0024 6.17642C32.2573 6.30511 32.5121 6.43379 32.767 6.51958C33.7864 7.03428 34.9757 6.86274 35.8252 6.00489L37.0146 4.80389C37.1845 4.63233 37.3543 4.63233 37.5242 4.80389L40.0728 7.37742C40.2427 7.37742 40.2427 7.37738 40.2427 7.54895L40.0728 7.72058L38.8834 8.92147C38.0339 9.77932 37.864 10.9804 38.3738 12.0098C38.7136 12.5245 38.8835 13.0392 39.0534 13.5539C39.3932 14.7549 40.4126 15.4412 41.6019 15.4412H43.301C43.4709 15.4412 43.6408 15.6126 43.6408 15.7842V19.5588C43.6408 19.7304 43.4709 19.9019 43.301 19.9019H41.7718C40.5825 19.9019 39.5631 20.7597 39.2233 21.7891C39.1383 22.0465 39.0109 22.3038 38.8835 22.5612C38.7561 22.8185 38.6287 23.0759 38.5437 23.3333C38.2796 23.8666 38.198 24.4461 38.2988 25H39.6834C39.5064 24.5928 39.5061 24.1345 39.733 23.6763C40.0074 23.2607 40.171 22.7332 40.3133 22.2745C40.3472 22.1651 40.3799 22.0597 40.4126 21.9606C40.7524 21.2744 41.432 20.7597 42.1116 20.7597H43.6408C44.4903 20.7597 45 20.0734 45 19.3871V15.6127C45 14.7548 44.3204 14.2401 43.6408 14.2401H41.9418C41.0923 14.2401 40.4127 13.7254 40.2427 13.0392C40.0728 12.3529 39.9029 11.8382 39.5631 11.3235C39.2233 10.8088 39.3932 9.95097 39.9029 9.43626L41.0923 8.23526C41.2622 8.06369 41.432 7.72056 41.432 7.37742C41.432 7.03428 41.2622 6.69115 41.0923 6.51958L38.5437 3.94605C38.034 3.43135 37.1844 3.43135 36.6747 3.94605L35.4854 5.14705C34.9757 5.66176 34.2961 5.83324 33.6165 5.49011C32.9369 5.14697 32.4272 4.97546 31.9175 4.80389C31.2379 4.46076 30.7281 3.77448 30.7281 3.08821V1.37253C30.7281 0.514684 30.0485 0 29.3689 0H25.6311C24.7815 0 24.2719 0.686253 24.2719 1.37253V3.08821C24.2719 3.94605 23.7621 4.63233 23.0825 4.80389C22.4029 4.97546 21.8932 5.14697 21.3835 5.49011C20.8738 5.83324 20.0243 5.66176 19.5146 5.14705Z" fill="#2E3192"/>
<path d="M25.4612 35H29.1991C29.8787 35 30.3884 34.3136 30.8981 33.6274V32.0832C30.8981 31.2254 31.4077 30.5391 32.0873 30.3675C32.767 30.196 33.2767 30.0243 33.7864 29.6812C34.2961 29.3381 35.1456 29.5098 35.6554 30.0245L36.8447 31.2254C37.3544 31.7401 38.2039 31.7401 38.7136 31.2254L41.2621 28.6518C41.7718 28.1371 41.7718 27.2793 41.2621 26.7646L40.0728 25.5637C39.9034 25.3927 39.7715 25.2027 39.6834 25H38.2988C38.3925 25.5151 38.6441 26.0082 39.0534 26.4216L40.2427 27.6225C40.4127 27.6225 40.4126 27.794 40.4126 27.794L40.2427 27.9655L37.6942 30.5391C37.5243 30.7106 37.3543 30.7106 37.1844 30.5391L35.9952 29.3382C35.1457 28.4803 33.9563 28.3087 32.9369 28.8234C32.4271 29.1665 31.9175 29.3381 31.4078 29.5097C30.2185 29.8528 29.5388 30.8822 29.5388 32.0832V33.6274C29.5388 33.7989 29.369 33.9704 29.1991 33.9704H25.4612C25.2913 33.9704 25.1214 33.7989 25.1214 33.6274V32.0832C25.1214 30.8822 24.2719 29.8528 23.2525 29.5097C22.7428 29.3381 22.233 28.9949 21.7233 28.8234C21.3835 28.6518 20.8738 28.4803 20.534 28.4803C19.8544 28.4803 19.1748 28.8235 18.3253 29.3382L17.1359 30.5391C16.966 30.7106 16.7961 30.7106 16.6262 30.5391L14.0777 27.9655C13.9078 27.9655 13.9078 27.794 13.9078 27.794L14.0777 27.6225L15.267 26.4216C16.1166 25.5637 16.2864 24.3627 15.7767 23.3333C15.4369 22.8186 15.267 22.3038 15.0971 21.7891C14.7573 20.5881 13.7379 19.9019 12.5485 19.9019H11.0195C10.8496 19.9019 10.6797 19.7304 10.6797 19.5588V15.7842C10.6797 15.6126 10.8496 15.4412 11.0195 15.4412H12.7185C13.9078 15.4412 14.9272 14.5834 15.267 13.5539C15.4369 13.0392 15.7767 12.5245 15.9466 12.0098C16.4563 10.9804 16.2864 9.77932 15.4369 8.92147L14.2476 7.72058C14.0777 7.72058 14.0777 7.72052 14.0777 7.54895L14.2476 7.37742L16.7961 4.80389C16.966 4.63233 17.136 4.63233 17.3059 4.80389L18.4951 6.00489C18.6528 6.16411 18.8222 6.29968 19 6.41162V4.6274L18.3253 3.94605C17.8156 3.43135 16.9661 3.43135 16.4564 3.94605L13.9078 6.51958C13.7379 6.69115 13.568 7.03428 13.568 7.37742C13.568 7.72056 13.7379 8.06369 13.9078 8.23526L15.0971 9.43626C15.6068 9.95097 15.7767 10.6372 15.4369 11.3235C15.0971 12.0097 14.9273 12.5245 14.7574 13.0392C14.4176 13.7254 13.7379 14.2401 13.0583 14.2401H11.3593C10.5098 14.2401 10 14.9264 10 15.6127V19.3871C10 20.2449 10.6797 20.7597 11.3593 20.7597H12.8884C13.7379 20.7597 14.4175 21.2744 14.5874 21.9606C14.7573 22.6469 14.9272 23.1616 15.267 23.6763C15.6068 24.191 15.4369 25.049 14.9272 25.5637L13.7379 26.7646C13.2282 27.2793 13.2282 28.1371 13.7379 28.6518L16.2864 31.2254C16.7961 31.7401 17.6457 31.7401 18.1554 31.2254L19.3446 30.0245C19.8544 29.5098 20.534 29.3381 21.2136 29.6812C21.7233 30.0243 22.403 30.196 22.9127 30.3675C23.5923 30.7107 24.102 31.3969 24.102 32.0832V33.6274C24.102 34.4852 24.7816 35 25.4612 35Z" fill="#2E3192"/>
<path fill-rule="evenodd" clip-rule="evenodd" d="M31.7719 25H33.4795C35.6267 23.1923 37.0144 20.4808 37.0144 17.4998C37.0144 12.0096 32.597 7.72046 27.33 7.72046C23.7428 7.72046 20.6733 9.66228 19 12.5111V15.0996C20.0425 11.4487 23.3957 8.74983 27.33 8.74983C32.0872 8.74983 35.9951 12.6959 35.9951 17.4998C35.9951 20.6686 34.2948 23.4641 31.7719 25Z" fill="#2E3192"/>
<path d="M19 20V22.4993C19.562 23.4515 20.2791 24.2959 21.1138 25H22.8881C21.0269 23.8669 19.6134 22.0483 19 19.8999V20Z" fill="#2E3192"/>
<path d="M19 12.5111C18.1371 13.9801 17.6455 15.6903 17.6455 17.4998C17.6455 19.34 18.1418 21.0453 19 22.4993V20V19.8999C18.7819 19.1362 18.665 18.3308 18.665 17.4998C18.665 16.6687 18.7819 15.8633 19 15.0996V12.5111Z" fill="#2E3192"/>
<path d="M31.7719 25C30.4701 25.7926 28.9492 26.2497 27.33 26.2497C25.7107 26.2497 24.1899 25.7926 22.8881 25H21.1138C22.8073 26.4286 24.9844 27.2793 27.33 27.2793C29.6449 27.2793 31.7958 26.4176 33.4795 25H31.7719Z" fill="#2E3192"/>
</svg>
