<svg width="35" height="35" viewBox="0 0 35 35" fill="none" xmlns="http://www.w3.org/2000/svg">
<path fill-rule="evenodd" clip-rule="evenodd" d="M9.51461 5.14705L9 4.6274V6.41162C9.78029 6.90278 10.7232 6.93876 11.5535 6.51958C12.0632 6.17644 12.5728 6.00483 13.0825 5.83326C14.2718 5.49013 14.9515 4.46072 14.9515 3.25974V1.54405C14.9515 1.37248 15.1213 1.2009 15.2912 1.2009H19.0291C19.199 1.2009 19.3689 1.37248 19.3689 1.54405V3.25974C19.3689 4.46072 20.2184 5.49013 21.2378 5.83326C21.4927 5.91905 21.7475 6.04773 22.0024 6.17642C22.2573 6.30511 22.5121 6.43379 22.767 6.51958C23.7864 7.03428 24.9757 6.86274 25.8252 6.00489L27.0146 4.80389C27.1845 4.63233 27.3543 4.63233 27.5242 4.80389L30.0728 7.37742C30.2427 7.37742 30.2427 7.37738 30.2427 7.54895L30.0728 7.72058L28.8834 8.92147C28.0339 9.77932 27.864 10.9804 28.3738 12.0098C28.7136 12.5245 28.8835 13.0392 29.0534 13.5539C29.3932 14.7549 30.4126 15.4412 31.6019 15.4412H33.301C33.4709 15.4412 33.6408 15.6126 33.6408 15.7842V19.5588C33.6408 19.7304 33.4709 19.9019 33.301 19.9019H31.7718C30.5825 19.9019 29.5631 20.7597 29.2233 21.7891C29.1383 22.0465 29.0109 22.3038 28.8835 22.5612C28.7561 22.8185 28.6287 23.0759 28.5437 23.3333C28.2796 23.8666 28.198 24.4461 28.2988 25H29.6834C29.5064 24.5928 29.5061 24.1345 29.733 23.6763C30.0074 23.2607 30.171 22.7332 30.3133 22.2745C30.3472 22.1651 30.3799 22.0597 30.4126 21.9606C30.7524 21.2744 31.432 20.7597 32.1116 20.7597H33.6408C34.4903 20.7597 35 20.0734 35 19.3871V15.6127C35 14.7548 34.3204 14.2401 33.6408 14.2401H31.9418C31.0923 14.2401 30.4127 13.7254 30.2427 13.0392C30.0728 12.3529 29.9029 11.8382 29.5631 11.3235C29.2233 10.8088 29.3932 9.95097 29.9029 9.43626L31.0923 8.23526C31.2622 8.06369 31.432 7.72056 31.432 7.37742C31.432 7.03428 31.2622 6.69115 31.0923 6.51958L28.5437 3.94605C28.034 3.43135 27.1844 3.43135 26.6747 3.94605L25.4854 5.14705C24.9757 5.66176 24.2961 5.83324 23.6165 5.49011C22.9369 5.14697 22.4272 4.97546 21.9175 4.80389C21.2379 4.46076 20.7281 3.77448 20.7281 3.08821V1.37253C20.7281 0.514684 20.0485 0 19.3689 0H15.6311C14.7815 0 14.2719 0.686253 14.2719 1.37253V3.08821C14.2719 3.94605 13.7621 4.63233 13.0825 4.80389C12.4029 4.97546 11.8932 5.14697 11.3835 5.49011C10.8738 5.83324 10.0243 5.66176 9.51461 5.14705Z" fill="#2E3192"/>
<path d="M15.4612 35H19.1991C19.8787 35 20.3884 34.3136 20.8981 33.6274V32.0832C20.8981 31.2254 21.4077 30.5391 22.0873 30.3675C22.7669 30.196 23.2767 30.0243 23.7864 29.6812C24.2961 29.3381 25.1456 29.5098 25.6554 30.0245L26.8447 31.2254C27.3544 31.7401 28.2039 31.7401 28.7136 31.2254L31.2621 28.6518C31.7718 28.1371 31.7718 27.2793 31.2621 26.7646L30.0728 25.5637C29.9034 25.3927 29.7715 25.2027 29.6834 25H28.2988C28.3925 25.5151 28.6441 26.0082 29.0534 26.4216L30.2427 27.6225C30.4127 27.6225 30.4126 27.794 30.4126 27.794L30.2427 27.9655L27.6942 30.5391C27.5243 30.7106 27.3543 30.7106 27.1844 30.5391L25.9952 29.3382C25.1457 28.4803 23.9563 28.3087 22.9369 28.8234C22.4271 29.1665 21.9175 29.3381 21.4078 29.5097C20.2185 29.8528 19.5388 30.8822 19.5388 32.0832V33.6274C19.5388 33.7989 19.369 33.9704 19.1991 33.9704H15.4612C15.2913 33.9704 15.1214 33.7989 15.1214 33.6274V32.0832C15.1214 30.8822 14.2719 29.8528 13.2525 29.5097C12.7428 29.3381 12.233 28.9949 11.7233 28.8234C11.3835 28.6518 10.8738 28.4803 10.534 28.4803C9.85437 28.4803 9.17478 28.8235 8.32527 29.3382L7.13593 30.5391C6.96603 30.7106 6.79615 30.7106 6.62624 30.5391L4.0777 27.9655C3.9078 27.9655 3.90784 27.794 3.90784 27.794L4.0777 27.6225L5.26704 26.4216C6.11656 25.5637 6.28644 24.3627 5.77673 23.3333C5.43692 22.8186 5.26698 22.3038 5.09708 21.7891C4.75727 20.5881 3.73786 19.9019 2.54854 19.9019H1.01948C0.849575 19.9019 0.679652 19.7304 0.679652 19.5588V15.7842C0.679652 15.6126 0.849575 15.4412 1.01948 15.4412H2.7185C3.90782 15.4412 4.92724 14.5834 5.26704 13.5539C5.43695 13.0392 5.77669 12.5245 5.94659 12.0098C6.4563 10.9804 6.28642 9.77932 5.4369 8.92147L4.24757 7.72058C4.07766 7.72058 4.0777 7.72052 4.0777 7.54895L4.24757 7.37742L6.7961 4.80389C6.96601 4.63233 7.13599 4.63233 7.3059 4.80389L8.49513 6.00489C8.6528 6.16411 8.82218 6.29968 9 6.41162V4.6274L8.32527 3.94605C7.81556 3.43135 6.96609 3.43135 6.45638 3.94605L3.90784 6.51958C3.73794 6.69115 3.56802 7.03428 3.56802 7.37742C3.56802 7.72056 3.73794 8.06369 3.90784 8.23526L5.09708 9.43626C5.60679 9.95097 5.77671 10.6372 5.4369 11.3235C5.0971 12.0097 4.92726 12.5245 4.75736 13.0392C4.41755 13.7254 3.73794 14.2401 3.05833 14.2401H1.3593C0.509791 14.2401 0 14.9264 0 15.6127V19.3871C0 20.2449 0.679693 20.7597 1.3593 20.7597H2.88837C3.73788 20.7597 4.41749 21.2744 4.58739 21.9606C4.75729 22.6469 4.92724 23.1616 5.26704 23.6763C5.60685 24.191 5.43692 25.049 4.92722 25.5637L3.73788 26.7646C3.22817 27.2793 3.22817 28.1371 3.73788 28.6518L6.28642 31.2254C6.79613 31.7401 7.6457 31.7401 8.15541 31.2254L9.34464 30.0245C9.85435 29.5098 10.534 29.3381 11.2136 29.6812C11.7233 30.0243 12.403 30.196 12.9127 30.3675C13.5923 30.7107 14.102 31.3969 14.102 32.0832V33.6274C14.102 34.4852 14.7816 35 15.4612 35Z" fill="#2E3192"/>
<path fill-rule="evenodd" clip-rule="evenodd" d="M21.7719 25H23.4795C25.6267 23.1923 27.0144 20.4808 27.0144 17.4998C27.0144 12.0096 22.597 7.72046 17.33 7.72046C13.7428 7.72046 10.6733 9.66228 9 12.5111V15.0996C10.0425 11.4487 13.3957 8.74983 17.33 8.74983C22.0873 8.74983 25.9951 12.6959 25.9951 17.4998C25.9951 20.6686 24.2948 23.4641 21.7719 25Z" fill="#2E3192"/>
<path d="M9 20V22.4993C9.56197 23.4515 10.2791 24.2959 11.1138 25H12.8881C11.0269 23.8669 9.6134 22.0483 9 19.8999V20Z" fill="#2E3192"/>
<path d="M9 12.5111C8.13715 13.9801 7.64551 15.6903 7.64551 17.4998C7.64551 19.34 8.14179 21.0453 9 22.4993V20V19.8999C8.78193 19.1362 8.66499 18.3308 8.66499 17.4998C8.66499 16.6687 8.78193 15.8633 9 15.0996V12.5111Z" fill="#2E3192"/>
<path d="M21.7719 25C20.4701 25.7926 18.9492 26.2497 17.33 26.2497C15.7107 26.2497 14.1899 25.7926 12.8881 25H11.1138C12.8073 26.4286 14.9844 27.2793 17.33 27.2793C19.6449 27.2793 21.7958 26.4176 23.4795 25H21.7719Z" fill="#2E3192"/>
</svg>
