<svg width="35" height="36" viewBox="0 0 35 36" fill="none" xmlns="http://www.w3.org/2000/svg">
<path fill-rule="evenodd" clip-rule="evenodd" d="M9.51461 5.64705L9 5.1274V6.91162C9.78029 7.40278 10.7232 7.43876 11.5535 7.01958C12.0632 6.67644 12.5728 6.50483 13.0825 6.33326C14.2718 5.99013 14.9515 4.96072 14.9515 3.75974V2.04405C14.9515 1.87248 15.1213 1.7009 15.2912 1.7009H19.0291C19.199 1.7009 19.3689 1.87248 19.3689 2.04405V3.75974C19.3689 4.96072 20.2184 5.99013 21.2378 6.33326C21.4927 6.41905 21.7475 6.54773 22.0024 6.67642C22.2573 6.80511 22.5121 6.93379 22.767 7.01958C23.7864 7.53428 24.9757 7.36274 25.8252 6.50489L27.0146 5.30389C27.1845 5.13233 27.3543 5.13233 27.5242 5.30389L30.0728 7.87742C30.2427 7.87742 30.2427 7.87738 30.2427 8.04895L30.0728 8.22058L28.8834 9.42147C28.0339 10.2793 27.864 11.4804 28.3738 12.5098C28.7136 13.0245 28.8835 13.5392 29.0534 14.0539C29.3932 15.2549 30.4126 15.9412 31.6019 15.9412H33.301C33.4709 15.9412 33.6408 16.1126 33.6408 16.2842V20.0588C33.6408 20.2304 33.4709 20.4019 33.301 20.4019H31.7718C30.5825 20.4019 29.5631 21.2597 29.2233 22.2891C29.1383 22.5465 29.0109 22.8038 28.8835 23.0612C28.7561 23.3185 28.6287 23.5759 28.5437 23.8333C28.2796 24.3666 28.198 24.9461 28.2988 25.5H29.6834C29.5064 25.0928 29.5061 24.6345 29.733 24.1763C30.0074 23.7607 30.171 23.2332 30.3133 22.7745C30.3472 22.6651 30.3799 22.5597 30.4126 22.4606C30.7524 21.7744 31.432 21.2597 32.1116 21.2597H33.6408C34.4903 21.2597 35 20.5734 35 19.8871V16.1127C35 15.2548 34.3204 14.7401 33.6408 14.7401H31.9418C31.0923 14.7401 30.4127 14.2254 30.2427 13.5392C30.0728 12.8529 29.9029 12.3382 29.5631 11.8235C29.2233 11.3088 29.3932 10.451 29.9029 9.93626L31.0923 8.73526C31.2622 8.56369 31.432 8.22056 31.432 7.87742C31.432 7.53428 31.2622 7.19115 31.0923 7.01958L28.5437 4.44605C28.034 3.93135 27.1844 3.93135 26.6747 4.44605L25.4854 5.64705C24.9757 6.16176 24.2961 6.33324 23.6165 5.99011C22.9369 5.64697 22.4272 5.47546 21.9175 5.30389C21.2379 4.96076 20.7281 4.27448 20.7281 3.58821V1.87253C20.7281 1.01468 20.0485 0.5 19.3689 0.5H15.6311C14.7815 0.5 14.2719 1.18625 14.2719 1.87253V3.58821C14.2719 4.44605 13.7621 5.13233 13.0825 5.30389C12.4029 5.47546 11.8932 5.64697 11.3835 5.99011C10.8738 6.33324 10.0243 6.16176 9.51461 5.64705Z" fill="#2E3192"/>
<path d="M15.4612 35.5H19.1991C19.8787 35.5 20.3884 34.8136 20.8981 34.1274V32.5832C20.8981 31.7254 21.4077 31.0391 22.0873 30.8675C22.7669 30.696 23.2767 30.5243 23.7864 30.1812C24.2961 29.8381 25.1456 30.0098 25.6554 30.5245L26.8447 31.7254C27.3544 32.2401 28.2039 32.2401 28.7136 31.7254L31.2621 29.1518C31.7718 28.6371 31.7718 27.7793 31.2621 27.2646L30.0728 26.0637C29.9034 25.8927 29.7715 25.7027 29.6834 25.5H28.2988C28.3925 26.0151 28.6441 26.5082 29.0534 26.9216L30.2427 28.1225C30.4127 28.1225 30.4126 28.294 30.4126 28.294L30.2427 28.4655L27.6942 31.0391C27.5243 31.2106 27.3543 31.2106 27.1844 31.0391L25.9952 29.8382C25.1457 28.9803 23.9563 28.8087 22.9369 29.3234C22.4271 29.6665 21.9175 29.8381 21.4078 30.0097C20.2185 30.3528 19.5388 31.3822 19.5388 32.5832V34.1274C19.5388 34.2989 19.369 34.4704 19.1991 34.4704H15.4612C15.2913 34.4704 15.1214 34.2989 15.1214 34.1274V32.5832C15.1214 31.3822 14.2719 30.3528 13.2525 30.0097C12.7428 29.8381 12.233 29.4949 11.7233 29.3234C11.3835 29.1518 10.8738 28.9803 10.534 28.9803C9.85437 28.9803 9.17478 29.3235 8.32527 29.8382L7.13593 31.0391C6.96603 31.2106 6.79615 31.2106 6.62624 31.0391L4.0777 28.4655C3.9078 28.4655 3.90784 28.294 3.90784 28.294L4.0777 28.1225L5.26704 26.9216C6.11656 26.0637 6.28644 24.8627 5.77673 23.8333C5.43692 23.3186 5.26698 22.8038 5.09708 22.2891C4.75727 21.0881 3.73786 20.4019 2.54854 20.4019H1.01948C0.849575 20.4019 0.679652 20.2304 0.679652 20.0588V16.2842C0.679652 16.1126 0.849575 15.9412 1.01948 15.9412H2.7185C3.90782 15.9412 4.92724 15.0834 5.26704 14.0539C5.43695 13.5392 5.77669 13.0245 5.94659 12.5098C6.4563 11.4804 6.28642 10.2793 5.4369 9.42147L4.24757 8.22058C4.07766 8.22058 4.0777 8.22052 4.0777 8.04895L4.24757 7.87742L6.7961 5.30389C6.96601 5.13233 7.13599 5.13233 7.3059 5.30389L8.49513 6.50489C8.6528 6.66411 8.82218 6.79968 9 6.91162V5.1274L8.32527 4.44605C7.81556 3.93135 6.96609 3.93135 6.45638 4.44605L3.90784 7.01958C3.73794 7.19115 3.56802 7.53428 3.56802 7.87742C3.56802 8.22056 3.73794 8.56369 3.90784 8.73526L5.09708 9.93626C5.60679 10.451 5.77671 11.1372 5.4369 11.8235C5.0971 12.5097 4.92726 13.0245 4.75736 13.5392C4.41755 14.2254 3.73794 14.7401 3.05833 14.7401H1.3593C0.509791 14.7401 0 15.4264 0 16.1127V19.8871C0 20.7449 0.679693 21.2597 1.3593 21.2597H2.88837C3.73788 21.2597 4.41749 21.7744 4.58739 22.4606C4.75729 23.1469 4.92724 23.6616 5.26704 24.1763C5.60685 24.691 5.43692 25.549 4.92722 26.0637L3.73788 27.2646C3.22817 27.7793 3.22817 28.6371 3.73788 29.1518L6.28642 31.7254C6.79613 32.2401 7.6457 32.2401 8.15541 31.7254L9.34464 30.5245C9.85435 30.0098 10.534 29.8381 11.2136 30.1812C11.7233 30.5243 12.403 30.696 12.9127 30.8675C13.5923 31.2107 14.102 31.8969 14.102 32.5832V34.1274C14.102 34.9852 14.7816 35.5 15.4612 35.5Z" fill="#2E3192"/>
</svg>
