<svg width="21" height="20" viewBox="0 0 21 20" fill="none" xmlns="http://www.w3.org/2000/svg">
<path fill-rule="evenodd" clip-rule="evenodd" d="M14.7719 17.5H16.4795C18.6267 15.6923 20.0144 12.9808 20.0144 9.99978C20.0144 4.50959 15.597 0.220459 10.33 0.220459C6.7428 0.220459 3.67335 2.16228 2 5.01113V7.59961C3.04245 3.94866 6.39569 1.24983 10.33 1.24983C15.0873 1.24983 18.9951 5.19586 18.9951 9.99978C18.9951 13.1686 17.2948 15.9641 14.7719 17.5Z" fill="#2E3192"/>
<path d="M2 12.5V14.9993C2.56197 15.9515 3.27913 16.7959 4.11375 17.5H5.88808C4.0269 16.3669 2.6134 14.5483 2 12.3999V12.5Z" fill="#2E3192"/>
<path d="M2 5.01113C1.13715 6.48013 0.645508 8.1903 0.645508 9.99978C0.645508 11.84 1.14179 13.5453 2 14.9993V12.5V12.3999C1.78193 11.6362 1.66499 10.8308 1.66499 9.99978C1.66499 9.16872 1.78193 8.36333 2 7.59961V5.01113Z" fill="#2E3192"/>
<path d="M14.7719 17.5C13.4701 18.2926 11.9492 18.7497 10.33 18.7497C8.71072 18.7497 7.18989 18.2926 5.88808 17.5H4.11375C5.80726 18.9286 7.98438 19.7793 10.33 19.7793C12.6449 19.7793 14.7958 18.9176 16.4795 17.5H14.7719Z" fill="#2E3192"/>
</svg>
