<svg width="32" height="32" viewBox="0 0 32 32" fill="none" xmlns="http://www.w3.org/2000/svg">
<path d="M32 4.8L1.5 0L0 32H32V4.8Z" fill="#2E3192"/>
<path fill-rule="evenodd" clip-rule="evenodd" d="M26.5858 8.17604H18.9882V6.41333L6.5 8.31118V24.9465L18.9882 27.0644V24.4517H26.5858C26.8158 24.4632 27.0412 24.3845 27.2125 24.2328C27.3839 24.0812 27.4872 23.8689 27.5 23.6424V8.98465C27.487 8.75829 27.3836 8.54618 27.2123 8.39467C27.041 8.24316 26.8157 8.16456 26.5858 8.17604ZM26.7057 23.7768H18.9628L18.95 22.3818H20.8153V20.7572H18.9357L18.9268 19.7972H20.8153V18.1726H18.9125L18.9035 17.2126H20.8153V15.588H18.8975V14.628H20.8153V13.0034H18.8975V12.0434H20.8153V10.4187H18.8975V8.94182H26.7057V23.7768Z" fill="#FBFDFF"/>
<path d="M21.8652 10.4165H25.1075V12.0411H21.8652V10.4165ZM21.8652 13.0019H25.1075V14.6265H21.8652V13.0019ZM21.8652 15.5872H25.1075V17.2118H21.8652V15.5872ZM21.8652 18.1726H25.1075V19.7972H21.8652V18.1726ZM21.8652 20.7579H25.1075V22.3825H21.8652V20.7579Z" fill="#FBFDFF"/>
<path fill-rule="evenodd" clip-rule="evenodd" d="M9.76025 12.8047L11.3698 12.7138L12.3815 15.4528L13.577 12.6008L15.1865 12.51L13.232 16.3987L15.1865 20.2971L13.4848 20.1841L12.3358 17.2125L11.186 20.0711L9.62225 19.9352L11.4388 16.4918L9.76025 12.8047Z" fill="#2E3192"/>
</svg>
