<svg width="32" height="33" viewBox="0 0 32 33" fill="none" xmlns="http://www.w3.org/2000/svg">
<path d="M32 5.3L1.5 0.5L0 32.5H32V5.3Z" fill="#00A99D"/>
<path d="M26.2 26.3952H6.29993C6.09993 26.3952 6 26.2968 6 26.0998V16.2537C6 16.0568 6.09993 15.9583 6.29993 15.9583C6.49993 15.9583 6.59998 16.0568 6.59998 16.2537V25.8044H25.8999V16.2537C25.8999 16.0568 26 15.9583 26.2 15.9583C26.4 15.9583 26.5 16.0568 26.5 16.2537V26.0998C26.4 26.1983 26.3 26.3952 26.2 26.3952Z" fill="#FBFDFF"/>
<path d="M16.3 21.5707C16.1 21.5707 16 21.4722 16 21.2753V6.21066C16 6.01373 16.1 5.91528 16.3 5.91528C16.5 5.91528 16.6001 6.01373 16.6001 6.21066V21.2753C16.6001 21.4722 16.5 21.5707 16.3 21.5707Z" fill="#FBFDFF"/>
<path d="M16.3657 22.063C16.2657 22.063 16.1657 22.0629 16.1657 21.9645L14.0656 19.1092C13.9656 19.0107 13.9657 18.8138 14.1657 18.7153C14.2657 18.6169 14.4656 18.6168 14.5656 18.8138L16.4657 21.3737L18.3657 18.8138C18.4657 18.7153 18.6657 18.6169 18.7657 18.7153C18.8657 18.8138 18.9657 19.0107 18.8657 19.1092L16.7657 21.9645C16.5657 21.9645 16.4657 22.063 16.3657 22.063Z" fill="#FBFDFF"/>
</svg>
