<svg width="56" height="50" viewBox="0 0 56 50" fill="none" xmlns="http://www.w3.org/2000/svg">
<path d="M51.0127 4.22613C48.0499 1.48875 44.208 0 40.149 0C39.9879 0 39.8268 0 39.6587 0C35.4281 0.133782 31.4952 1.85922 28.5814 4.88817L28 5.49191L27.4186 4.88817C24.5048 1.86265 20.5719 0.133782 16.3413 0C16.1732 0 16.0121 0 15.851 0C11.792 0 7.95013 1.48875 4.9873 4.22613C1.89839 7.06984 0.133304 10.9221 0.00722652 15.0762C-0.118851 19.2199 1.40809 23.1717 4.32889 26.204L28 50L51.6886 26.1869C54.5919 23.1682 56.1189 19.2165 55.9928 15.0727C55.8667 10.9255 54.1051 7.07327 51.0127 4.22613ZM2.59883 15.1516C2.70039 11.6802 4.1853 8.45568 6.75939 6.08192C9.24242 3.79048 12.4574 2.54185 15.851 2.54185C15.9876 2.54185 16.1207 2.54185 16.2572 2.54871C19.8014 2.64819 23.0935 4.10263 25.5275 6.6239L39.354 20.9523C37.6134 21.9779 35.344 21.779 33.7926 20.3554L26.5816 13.7075C24.8165 15.5187 21.8397 15.6422 19.98 13.9304L14.7548 9.10058L12.9827 10.9529L18.208 15.7828C19.5528 17.0211 21.2653 17.6249 22.9849 17.6695L11.4208 29.6926L6.20255 24.4477C3.77205 21.923 2.49026 18.6162 2.59883 15.1516ZM26.8023 17.4053L29.3553 19.7551L15.6829 33.9805L13.2314 31.5176L26.8023 17.4053ZM31.2395 21.4942L32.017 22.2112C32.5703 22.7257 33.2252 23.0756 33.8906 23.3878L19.7594 38.0832L17.49 35.802L31.2395 21.4942ZM25.531 43.8804L27.8144 41.5409L30.4025 43.9455L28 46.3605L25.531 43.8804ZM38.2788 36.0353L36.1495 38.1758L33.5019 35.7094L35.6067 33.5483L38.2788 36.0353ZM37.3998 31.7097L39.5046 29.552L42.2153 32.0698L40.0825 34.2138L37.3998 31.7097ZM34.3354 39.9938L32.2131 42.1275L29.6075 39.7023L31.7053 37.548L34.3354 39.9938ZM49.815 24.4374L44.0294 30.2552L39.4241 25.9673L23.7239 42.0623L21.577 39.9046L36.7659 24.1081C36.8394 24.1116 36.9025 24.1459 36.976 24.1459C37.0426 24.1459 37.1021 24.1459 37.1616 24.1459C39.0878 24.0978 40.8774 23.3192 42.2013 21.9367L43.0383 21.0689L29.7861 7.34427L30.4795 6.6239C32.91 4.10263 36.2021 2.64819 39.7498 2.54871C43.336 2.36004 46.663 3.69786 49.2476 6.07849C51.8217 8.45225 53.3066 11.6767 53.4082 15.1482C53.5132 18.6162 52.2279 21.923 49.815 24.4374Z" fill="white"/>
</svg>