<svg width="75" height="125" viewBox="0 0 75 125" fill="none" xmlns="http://www.w3.org/2000/svg">
<path d="M36.807 61.1834C20.5872 61.1834 7.84302 47.1256 7.84302 30.6229C7.84302 13.5091 21.1665 0.0625 36.807 0.0625C53.0268 0.0625 65.771 14.1203 65.771 30.6229C65.771 47.1256 53.0268 61.1834 36.807 61.1834ZM36.807 3.11854C22.325 3.11854 10.7394 15.3429 10.7394 30.0119C10.7394 45.2921 22.325 57.5163 36.807 57.5163C51.289 57.5163 62.2955 45.2921 62.2955 30.0119C62.8747 15.3429 51.289 3.11854 36.807 3.11854Z" fill="#FBFDFF"/>
<path d="M73.3016 124.75H2.05027C0.891709 124.75 0.3125 124.138 0.3125 122.916V96.6345C0.3125 74.631 17.1118 57.517 37.3866 57.517C58.2406 57.517 74.4603 75.2422 74.4603 96.6345V122.916C75.0395 124.138 74.4602 124.75 73.3016 124.75ZM3.78804 121.083H71.5639V96.6345C71.5639 77.0759 56.5028 60.5731 37.3866 60.5731C18.2703 60.5731 3.2089 76.4647 3.2089 96.6345V121.083H3.78804Z" fill="#FBFDFF"/>
</svg>
